<?xml version="1.0" encoding="UTF-8"?>
<svg width="220.1" height="110.27" version="1.1" viewBox="0 0 206.34 103.38" xmlns="http://www.w3.org/2000/svg">
 <g transform="translate(-20.844 -59.824)" display="none" fill="none" stroke="#000" stroke-width=".3">
  <path d="m242.99 109.29h-212.28" opacity=".259"/>
  <path d="m242.99 80.188h-212.28" opacity=".259"/>
  <path d="m242.99 130.96h-212.28" opacity=".259"/>
  <path d="m242.99 82.681h-212.28" opacity=".259"/>
  <path d="m242.99 120.13h-212.28" opacity=".259"/>
  <path d="m242.99 44.836h-212.28" opacity=".259"/>
  <path d="m242.99 33.603h-212.28" opacity=".259"/>
  <path d="m242.99 56.069h-212.28" opacity=".259"/>
 </g>
 <g transform="translate(-20.844 -72.328)" display="none">
  <text x="123.34216" y="165.54649" display="inline" fill="#005c94" font-family="'Fira Sans'" font-size="15px" letter-spacing="0px" text-align="center" text-anchor="middle" word-spacing="0px" style="line-height:118%" xml:space="preserve"><tspan x="123.34216" y="165.54649" text-align="center" style="line-height:118%">Katedra počítačov a informatiky</tspan><tspan x="123.34216" y="183.60654" text-align="center" style="line-height:118%">FEI TU v Košiciach</tspan></text>
 </g>
 <g transform="translate(-20.844 -72.328)" display="none">
  <text transform="translate(-126.07 -308.43)" x="248.92279" y="479.97626" display="inline" fill="#005c94" font-family="'Fira Sans'" font-size="25px" letter-spacing="0px" text-align="center" text-anchor="middle" word-spacing="0px" style="line-height:118%" xml:space="preserve"><tspan x="248.92279" y="479.97626" text-align="center" style="line-height:118%">Katedra počítačov</tspan><tspan x="248.92279" y="512.42627" text-align="center" style="line-height:118%">a informatiky</tspan></text>
 </g>
 <g transform="translate(-20.844 -72.328)" display="none">
  <text x="123.34216" y="165.54649" display="inline" fill="#005c94" font-family="'Bitstream Charter'" font-size="15px" letter-spacing="0px" text-align="center" text-anchor="middle" word-spacing="0px" style="line-height:118%" xml:space="preserve"><tspan x="123.34216" y="165.54649" fill="#005c94" font-family="'Fira Sans'" font-size="15px" text-align="center" text-anchor="middle" style="line-height:118%">Katedra počítačov a informatiky</tspan></text>
 </g>
 <g transform="translate(-146.91 -380.76)">
  <g transform="translate(0 31.556)">
   <path d="m215.94 400.89-34.048 39.722h-34.048l34.048-39.722-34.048-39.722h34.048z" fill="#19aeff"/>
   <path d="m204.59 400.89-34.048 39.722h-22.699l34.048-39.722-34.048-39.722h22.699z" fill="#0084c8"/>
   <path d="m193.24 400.89-34.048 39.722h-11.349l34.048-39.722-34.048-39.722h11.349z" fill="#005c94"/>
   <g fill="#005c94" stroke-width="1px" aria-label="kpi">
    <path d="m239.57 354.34-12.8 1.4v74.1h12.8zm31.7 22.6h-13.5l-17.7 24 18.2 28.9h14.7l-19.3-29.6z"/>
    <path d="m307.29 375.44c-5.4 0-11.1 2.5-15.3 8l-0.7-6.5h-11.2v74.7l12.8-1.4v-24.7c3.3 3.9 7.9 5.8 13.3 5.8 13.4 0 20.9-11.9 20.9-28.1 0-16.9-5.8-27.8-19.8-27.8zm-4.7 46.1c-4 0-7.2-1.8-9.7-5.5v-23.8c2.5-4.1 6.2-7.2 10.6-7.2 6.6 0 10.2 4.9 10.2 18.3 0 12.8-4.1 18.2-11.1 18.2z"/>
    <path d="m344.21 350.14c-4.7 0-8 3.4-8 7.8 0 4.3 3.3 7.7 8 7.7 4.8 0 8.1-3.4 8.1-7.7 0-4.4-3.3-7.8-8.1-7.8zm6.5 26.8h-12.8v52.9h12.8z"/>
   </g>
  </g>
 </g>
</svg>
